0
SECTION
2
HEADER
9
$INSUNITS
70
4
9
$ACADVER
1
AC1014
9
$HANDSEED
5
FFFF
0
ENDSEC
0
SECTION
2
TABLES
0
TABLE
2
VPORT
5
8
100
AcDbSymbolTable
0
ENDTAB
0
TABLE
2
LTYPE
5
5
100
AcDbSymbolTable
0
LTYPE
5
14
100
AcDbSymbolTableRecord
100
AcDbLinetypeTableRecord
2
BYBLOCK
70
0
0
LTYPE
5
15
100
AcDbSymbolTableRecord
100
AcDbLinetypeTableRecord
2
BYLAYER
70
0
0
ENDTAB
0
TABLE
2
LAYER
5
2
100
AcDbSymbolTable
70
2
0
LAYER
5
50
100
AcDbSymbolTableRecord
100
AcDbLayerTableRecord
2
0
70
0
6
CONTINUOUS
0
ENDTAB
0
TABLE
2
STYLE
5
3
100
AcDbSymbolTable
70
1
0
STYLE
5
11
100
AcDbSymbolTableRecord
100
AcDbTextStyleTableRecord
2
STANDARD
70
0
0
ENDTAB
0
TABLE
2
VIEW
5
6
100
AcDbSymbolTable
70
0
0
ENDTAB
0
TABLE
2
UCS
5
7
100
AcDbSymbolTable
70
0
0
ENDTAB
0
TABLE
2
APPID
5
9
100
AcDbSymbolTable
70
2
0
APPID
5
12
100
AcDbSymbolTableRecord
100
AcDbRegAppTableRecord
2
ACAD
70
0
0
ENDTAB
0
TABLE
2
DIMSTYLE
5
A
100
AcDbSymbolTable
70
1
0
ENDTAB
0
TABLE
2
BLOCK_RECORD
5
1
100
AcDbSymbolTable
70
1
0
BLOCK_RECORD
5
1F
100
AcDbSymbolTableRecord
100
AcDbBlockTableRecord
2
*MODEL_SPACE
0
BLOCK_RECORD
5
1B
100
AcDbSymbolTableRecord
100
AcDbBlockTableRecord
2
*PAPER_SPACE
0
ENDTAB
0
ENDSEC
0
SECTION
2
BLOCKS
0
BLOCK
5
20
100
AcDbEntity
100
AcDbBlockBegin
2
*MODEL_SPACE
0
ENDBLK
5
21
100
AcDbEntity
100
AcDbBlockEnd
0
BLOCK
5
1C
100
AcDbEntity
100
AcDbBlockBegin
2
*PAPER_SPACE
0
ENDBLK
5
1D
100
AcDbEntity
100
AcDbBlockEnd
0
ENDSEC
0
SECTION
2
ENTITIES
0
LWPOLYLINE
5
100
100
AcDbEntity
8
0
100
AcDbPolyline
90
68
70
1
43
0.0
10
30.000000447034836
20
306.00000455975533
10
30.000000447034836
20
300.00000447034836
10
60.000000894069672
20
300.00000447034836
10
60.000000894069672
20
306.00000455975533
10
90.000001341104507
20
306.00000455975533
10
90.000001341104507
20
300.00000447034836
10
120.00000178813934
20
300.00000447034836
10
120.00000178813934
20
306.00000455975533
10
150.00000223517418
20
306.00000455975533
10
150.00000223517418
20
300.00000447034836
10
180.00000268220901
20
300.00000447034836
10
180.00000268220901
20
306.00000455975533
10
210.00000312924385
20
306.00000455975533
10
210.00000312924385
20
300.00000447034836
10
239.00000312924385
20
300.00000447034836
10
239.00000312924385
20
306.00000447034836
10
269.00000312924385
20
306.00000447034836
10
269.00000312924385
20
300.00000447034836
10
299.00000312924385
20
300.00000447034836
10
299.00000312924385
20
306.00000447034836
10
329.00000312924385
20
306.00000447034836
10
329.00000312924385
20
300.00000447034836
10
359.00000312924385
20
300.00000447034836
10
359.00000312924385
20
306.00000447034836
10
389.00000312924385
20
306.00000447034836
10
389.00000312924385
20
300
10
419.00000312924385
20
300
10
419.00000312924385
20
306
10
443.00000660121441
20
306.00000455975533
10
443.00000660121441
20
333.00000496208668
10
449.00000669062138
20
333.00000496208668
10
449.00000669062138
20
360.00000536441803
10
443.00000660121441
20
360.00000536441803
10
443.00000660121441
20
387
10
419.00000312924385
20
387
10
419.00000312924385
20
393.00000000000006
10
383.00000660121441
20
393.00000000000006
10
383.00000660121441
20
387
10
359.00000312924385
20
387
10
359.00000312924385
20
393.00000000000006
10
323.00000660121441
20
393.00000000000006
10
323.00000660121441
20
387
10
299.00000312924385
20
387
10
299.00000312924385
20
393.00000000000006
10
263.00000660121441
20
393.00000000000006
10
263.00000660121441
20
387
10
239.00000312924385
20
387
10
239.99990490683587
20
392.91609638487819
10
204.00000615417957
20
393.00000000000006
10
204.00000615417957
20
387
10
180.00000268220901
20
387
10
180.00000268220904
20
393.00000000000006
10
144.00000434067593
20
393.00000000000006
10
144.00000434067593
20
387
10
120.00000086870536
20
387
10
120.00000263690868
20
392.99999999999977
10
84.000003471970629
20
393.00000000000011
10
84.000003471970572
20
387
10
60
20
387
10
60.000000000002139
20
393.00000000000006
10
29.999999969085387
20
393.00000000000017
10
29.999998549862703
20
387.0000000000004
10
6.0000000894069672
20
387.00000576674938
10
6.0000000894069672
20
360.00000536441803
10
0
20
360.00000536441803
10
0
20
333.00000496208668
10
6.0000000894069672
20
333.00000496208668
10
6.0000000894069672
20
306.00000455975533
0
ENDSEC
0
SECTION
2
OBJECTS
0
DICTIONARY
5
C
100
AcDbDictionary
3
ACAD_GROUP
350
D
3
ACAD_MLINESTYLE
350
17
0
DICTIONARY
5
D
100
AcDbDictionary
0
DICTIONARY
5
1A
330
C
100
AcDbDictionary
0
DICTIONARY
5
17
100
AcDbDictionary
0
ENDSEC
0
EOF
