0
SECTION
2
HEADER
9
$INSUNITS
70
4
9
$ACADVER
1
AC1014
9
$HANDSEED
5
FFFF
0
ENDSEC
0
SECTION
2
TABLES
0
TABLE
2
VPORT
5
8
100
AcDbSymbolTable
0
ENDTAB
0
TABLE
2
LTYPE
5
5
100
AcDbSymbolTable
0
LTYPE
5
14
100
AcDbSymbolTableRecord
100
AcDbLinetypeTableRecord
2
BYBLOCK
70
0
0
LTYPE
5
15
100
AcDbSymbolTableRecord
100
AcDbLinetypeTableRecord
2
BYLAYER
70
0
0
ENDTAB
0
TABLE
2
LAYER
5
2
100
AcDbSymbolTable
70
2
0
LAYER
5
50
100
AcDbSymbolTableRecord
100
AcDbLayerTableRecord
2
0
70
0
6
CONTINUOUS
0
ENDTAB
0
TABLE
2
STYLE
5
3
100
AcDbSymbolTable
70
1
0
STYLE
5
11
100
AcDbSymbolTableRecord
100
AcDbTextStyleTableRecord
2
STANDARD
70
0
0
ENDTAB
0
TABLE
2
VIEW
5
6
100
AcDbSymbolTable
70
0
0
ENDTAB
0
TABLE
2
UCS
5
7
100
AcDbSymbolTable
70
0
0
ENDTAB
0
TABLE
2
APPID
5
9
100
AcDbSymbolTable
70
2
0
APPID
5
12
100
AcDbSymbolTableRecord
100
AcDbRegAppTableRecord
2
ACAD
70
0
0
ENDTAB
0
TABLE
2
DIMSTYLE
5
A
100
AcDbSymbolTable
70
1
0
ENDTAB
0
TABLE
2
BLOCK_RECORD
5
1
100
AcDbSymbolTable
70
1
0
BLOCK_RECORD
5
1F
100
AcDbSymbolTableRecord
100
AcDbBlockTableRecord
2
*MODEL_SPACE
0
BLOCK_RECORD
5
1B
100
AcDbSymbolTableRecord
100
AcDbBlockTableRecord
2
*PAPER_SPACE
0
ENDTAB
0
ENDSEC
0
SECTION
2
BLOCKS
0
BLOCK
5
20
100
AcDbEntity
100
AcDbBlockBegin
2
*MODEL_SPACE
0
ENDBLK
5
21
100
AcDbEntity
100
AcDbBlockEnd
0
BLOCK
5
1C
100
AcDbEntity
100
AcDbBlockBegin
2
*PAPER_SPACE
0
ENDBLK
5
1D
100
AcDbEntity
100
AcDbBlockEnd
0
ENDSEC
0
SECTION
2
ENTITIES
0
LWPOLYLINE
5
100
100
AcDbEntity
8
0
100
AcDbPolyline
90
54
70
1
43
0.0
10
481
20
24.000000000000004
10
475
20
24.000000000000004
10
475
20
48.000000715255737
10
481
20
48.000000715255737
10
481
20
72.000001072883606
10
475
20
72.000001072883606
10
475
20
95.000001415610313
10
475
20
96.000001430511475
10
481.00000716745853
20
96.000001430511475
10
481.00000716745853
20
120.00000178813934
10
475
20
120.00000178813934
10
475
20
144.00000214576721
10
481.00000716745853
20
144.00000214576721
10
481.00000716745853
20
168.00000250339508
10
475
20
168.00000250339508
10
475
20
192.00000286102295
10
481.00000716745853
20
192.00000286102295
10
481.00000716745853
20
216.00000321865082
10
475
20
216.00000321865082
10
475
20
240.00000357627869
10
481.00000716745853
20
240.00000357627869
10
481.00000716745853
20
258.00000384449959
10
481.00000756978989
20
264
10
508.00000756978989
20
264
10
508.00000756978989
20
258.00000384449959
10
535.00000797212124
20
258.00000384449959
10
535.00000797212124
20
264
10
562.00000797212124
20
264
10
562.00000837445259
20
240.00000357627869
10
568.00000837445259
20
240.00000367686147
10
568.00000837445259
20
216.00000321865082
10
562.00000837445259
20
216.00000321865082
10
562.00000837445259
20
192.00000286102295
10
568.00000837445259
20
192.0000029616057
10
568.00000837445259
20
168.00000250339508
10
562.00000837445259
20
168.00000250339508
10
562.00000837445259
20
144.00000214576721
10
568.00000837445259
20
144.00000214576721
10
568.00000837445259
20
120.00000168755662
10
562.00000837445259
20
120.00000178813934
10
562.00000837445259
20
96.000001430511475
10
568.00000837445259
20
96.000001430511475
10
568.00000837445259
20
72.000000972300867
10
562.00000837445259
20
72.000001072883606
10
562.00000837445259
20
48.000000715255737
10
568.00000837445259
20
48.000000715255737
10
568.00000837445259
20
24.000000257045137
10
562.00000837445259
20
24.000000357627869
10
562.00000837442519
20
0
10
535.00000777095443
20
3.0823121832668221e-11
10
535.00000777096125
20
6.0000000889997906
10
508.00000777096125
20
6.000000089030614
10
508.00000777095443
20
-3.0825317561913467e-11
10
481
20
0
0
ENDSEC
0
SECTION
2
OBJECTS
0
DICTIONARY
5
C
100
AcDbDictionary
3
ACAD_GROUP
350
D
3
ACAD_MLINESTYLE
350
17
0
DICTIONARY
5
D
100
AcDbDictionary
0
DICTIONARY
5
1A
330
C
100
AcDbDictionary
0
DICTIONARY
5
17
100
AcDbDictionary
0
ENDSEC
0
EOF
