0
SECTION
2
HEADER
9
$INSUNITS
70
4
9
$ACADVER
1
AC1014
9
$HANDSEED
5
FFFF
0
ENDSEC
0
SECTION
2
TABLES
0
TABLE
2
VPORT
5
8
100
AcDbSymbolTable
0
ENDTAB
0
TABLE
2
LTYPE
5
5
100
AcDbSymbolTable
0
LTYPE
5
14
100
AcDbSymbolTableRecord
100
AcDbLinetypeTableRecord
2
BYBLOCK
70
0
0
LTYPE
5
15
100
AcDbSymbolTableRecord
100
AcDbLinetypeTableRecord
2
BYLAYER
70
0
0
ENDTAB
0
TABLE
2
LAYER
5
2
100
AcDbSymbolTable
70
2
0
LAYER
5
50
100
AcDbSymbolTableRecord
100
AcDbLayerTableRecord
2
0
70
0
6
CONTINUOUS
0
ENDTAB
0
TABLE
2
STYLE
5
3
100
AcDbSymbolTable
70
1
0
STYLE
5
11
100
AcDbSymbolTableRecord
100
AcDbTextStyleTableRecord
2
STANDARD
70
0
0
ENDTAB
0
TABLE
2
VIEW
5
6
100
AcDbSymbolTable
70
0
0
ENDTAB
0
TABLE
2
UCS
5
7
100
AcDbSymbolTable
70
0
0
ENDTAB
0
TABLE
2
APPID
5
9
100
AcDbSymbolTable
70
2
0
APPID
5
12
100
AcDbSymbolTableRecord
100
AcDbRegAppTableRecord
2
ACAD
70
0
0
ENDTAB
0
TABLE
2
DIMSTYLE
5
A
100
AcDbSymbolTable
70
1
0
ENDTAB
0
TABLE
2
BLOCK_RECORD
5
1
100
AcDbSymbolTable
70
1
0
BLOCK_RECORD
5
1F
100
AcDbSymbolTableRecord
100
AcDbBlockTableRecord
2
*MODEL_SPACE
0
BLOCK_RECORD
5
1B
100
AcDbSymbolTableRecord
100
AcDbBlockTableRecord
2
*PAPER_SPACE
0
ENDTAB
0
ENDSEC
0
SECTION
2
BLOCKS
0
BLOCK
5
20
100
AcDbEntity
100
AcDbBlockBegin
2
*MODEL_SPACE
0
ENDBLK
5
21
100
AcDbEntity
100
AcDbBlockEnd
0
BLOCK
5
1C
100
AcDbEntity
100
AcDbBlockBegin
2
*PAPER_SPACE
0
ENDBLK
5
1D
100
AcDbEntity
100
AcDbBlockEnd
0
ENDSEC
0
SECTION
2
ENTITIES
0
LWPOLYLINE
5
100
100
AcDbEntity
8
0
100
AcDbPolyline
90
100
70
1
43
0.0
10
30.000000089406971
20
264
10
30.000000089406971
20
258.00000384449959
10
60.000000089406967
20
258.00000384449959
10
60.000000089406967
20
264
10
90.000000089406967
20
264
10
90.000000089406967
20
258.00000384449959
10
120.00000008940697
20
258.00000384449959
10
120.00000008940697
20
264
10
150.00000008940697
20
264
10
150.00000008940697
20
258.00000384449959
10
180.00000008940697
20
258.00000384449959
10
180.00000008940697
20
264
10
210.00000008940697
20
264
10
210.00000008940697
20
258.00000384449959
10
239.00000660121441
20
258.00000384449959
10
239.00000660121441
20
264
10
269.00000660121441
20
264
10
269.00000660121441
20
258.00000384449959
10
299.00000660121441
20
258.00000384449959
10
299.00000660121441
20
264
10
329.00000660121441
20
264
10
329.00000660121441
20
258.00000384449959
10
359.00000660121441
20
258.00000384449959
10
359.00000660121441
20
264
10
389.00000660121441
20
264
10
389.00000660121441
20
258.00000384449959
10
419.00000660121441
20
258.00000384449959
10
419.00000660121441
20
264
10
449.00000000000006
20
264
10
449.00000000000006
20
240.00000008940697
10
443.00000660121441
20
240.00000008940697
10
443.00000660121441
20
216.00000008940697
10
449.00000000000006
20
216.00000008940697
10
449.00000000000006
20
192.00000008940697
10
443.00000660121441
20
192.00000008940697
10
443.00000660121441
20
168.000000089407
10
449.00000000000006
20
168.000000089407
10
449.00000000000006
20
144.00000008940697
10
443.00000660121441
20
144.00000008940697
10
443.00000660121441
20
120.00000008940697
10
449.00000000000006
20
120.00000008940697
10
449.00000000000006
20
96.000000089406967
10
443.00000660121441
20
96.000000089406967
10
443.00000660121441
20
72.000000089406967
10
449.00000000000006
20
72.000000089406967
10
449.00000000000006
20
48.000000089406967
10
443.00000660121441
20
48.000000089406967
10
443.00000660121441
20
24.000000089406967
10
449.00000000000006
20
24.000000089406967
10
449.00000000000006
20
0
10
419.00000660121441
20
0
10
419.00000660121441
20
6.0000000894069672
10
389.00000660121441
20
6.0000000894069672
10
389.00000660121441
20
0
10
359.00000660121441
20
0
10
359.00000660121441
20
6.0000000894069672
10
329.00000660121441
20
6.0000000894069672
10
329.00000660121441
20
0
10
299.00000660121441
20
0
10
299.00000660121441
20
6.0000000894069672
10
269.00000660121441
20
6.0000000894069672
10
269.00000660121441
20
0
10
239.00000660121441
20
0
10
239.00000660121441
20
6.0000000894069672
10
210.00000008940697
20
6.0000000894069672
10
210.00000008940697
20
0
10
180.00000008940697
20
0
10
180.00000008940697
20
6.0000000894069672
10
150.00000008940697
20
6.0000000894069672
10
150.00000008940697
20
0
10
120.00000008940697
20
0
10
120.00000008940697
20
6.0000000894069672
10
90.000000089406967
20
6.0000000894069672
10
90.000000089406967
20
0
10
60.000000089406967
20
0
10
60.000000089406967
20
6.0000000894069672
10
30.000000089406971
20
6.0000000894069672
10
30.000000089406971
20
0
10
0
20
0
10
0
20
24.000003844499567
10
6.0000000894069672
20
24.000003844499567
10
6.0000000894069672
20
48.000003844499574
10
0
20
48.000003844499574
10
0
20
72.000003844499574
10
6.0000000894069672
20
72.000003844499574
10
6.0000000894069672
20
96.000003844499574
10
0
20
96.000003844499574
10
0
20
120.00000384449959
10
6.0000000894069672
20
120.00000384449959
10
6.0000000894069672
20
144.00000384449959
10
0
20
144.00000384449959
10
0
20
168.00000384449959
10
6.0000000894069672
20
168.00000384449959
10
6.0000000894069672
20
192.00000384449959
10
0
20
192.00000384449959
10
0
20
216.00000384449956
10
6.0000000894069672
20
216.00000384449956
10
6.0000000894069672
20
240.00000384449959
10
0
20
240.00000384449959
10
0
20
264
0
ENDSEC
0
SECTION
2
OBJECTS
0
DICTIONARY
5
C
100
AcDbDictionary
3
ACAD_GROUP
350
D
3
ACAD_MLINESTYLE
350
17
0
DICTIONARY
5
D
100
AcDbDictionary
0
DICTIONARY
5
1A
330
C
100
AcDbDictionary
0
DICTIONARY
5
17
100
AcDbDictionary
0
ENDSEC
0
EOF
