0
SECTION
2
HEADER
9
$INSUNITS
70
4
9
$ACADVER
1
AC1014
9
$HANDSEED
5
FFFF
0
ENDSEC
0
SECTION
2
TABLES
0
TABLE
2
VPORT
5
8
100
AcDbSymbolTable
0
ENDTAB
0
TABLE
2
LTYPE
5
5
100
AcDbSymbolTable
0
LTYPE
5
14
100
AcDbSymbolTableRecord
100
AcDbLinetypeTableRecord
2
BYBLOCK
70
0
0
LTYPE
5
15
100
AcDbSymbolTableRecord
100
AcDbLinetypeTableRecord
2
BYLAYER
70
0
0
ENDTAB
0
TABLE
2
LAYER
5
2
100
AcDbSymbolTable
70
2
0
LAYER
5
50
100
AcDbSymbolTableRecord
100
AcDbLayerTableRecord
2
0
70
0
6
CONTINUOUS
0
ENDTAB
0
TABLE
2
STYLE
5
3
100
AcDbSymbolTable
70
1
0
STYLE
5
11
100
AcDbSymbolTableRecord
100
AcDbTextStyleTableRecord
2
STANDARD
70
0
0
ENDTAB
0
TABLE
2
VIEW
5
6
100
AcDbSymbolTable
70
0
0
ENDTAB
0
TABLE
2
UCS
5
7
100
AcDbSymbolTable
70
0
0
ENDTAB
0
TABLE
2
APPID
5
9
100
AcDbSymbolTable
70
2
0
APPID
5
12
100
AcDbSymbolTableRecord
100
AcDbRegAppTableRecord
2
ACAD
70
0
0
ENDTAB
0
TABLE
2
DIMSTYLE
5
A
100
AcDbSymbolTable
70
1
0
ENDTAB
0
TABLE
2
BLOCK_RECORD
5
1
100
AcDbSymbolTable
70
1
0
BLOCK_RECORD
5
1F
100
AcDbSymbolTableRecord
100
AcDbBlockTableRecord
2
*MODEL_SPACE
0
BLOCK_RECORD
5
1B
100
AcDbSymbolTableRecord
100
AcDbBlockTableRecord
2
*PAPER_SPACE
0
ENDTAB
0
ENDSEC
0
SECTION
2
BLOCKS
0
BLOCK
5
20
100
AcDbEntity
100
AcDbBlockBegin
2
*MODEL_SPACE
0
ENDBLK
5
21
100
AcDbEntity
100
AcDbBlockEnd
0
BLOCK
5
1C
100
AcDbEntity
100
AcDbBlockBegin
2
*PAPER_SPACE
0
ENDBLK
5
1D
100
AcDbEntity
100
AcDbBlockEnd
0
ENDSEC
0
SECTION
2
ENTITIES
0
CIRCLE
5
100
100
AcDbEntity
8
0
100
AcDbCircle
10
404.00000000000006
20
192.99999999999997
30
0
40
10.000000000000007
0
CIRCLE
5
101
100
AcDbEntity
8
0
100
AcDbCircle
10
45
20
192.99999999999997
30
0
40
10
0
LINE
5
102
100
AcDbEntity
8
0
100
AcDbLine
10
169.00000000000003
20
61.000000000000007
30
0
11
125.00000000000001
21
61.000000000000007
31
0
0
LWPOLYLINE
5
103
100
AcDbEntity
8
0
100
AcDbPolyline
90
6
70
1
43
0.0
10
280.00000000000011
20
61.000000000000007
10
324.00000000000011
20
61.000000000000007
10
324.50000484287739
20
61.000000000000007
10
324.50000484287739
20
32.000000476837158
10
279.50000415742397
20
32.000000476837158
10
279.50000415742397
20
61.000000908970833
0
LWPOLYLINE
5
104
100
AcDbEntity
8
0
100
AcDbPolyline
90
4
70
1
43
0.0
10
239
20
202.99999999999997
10
210
20
202.99999999999997
10
210
20
231.99999999999994
10
239
20
231.99999999999994
0
LWPOLYLINE
5
105
100
AcDbEntity
8
0
100
AcDbPolyline
90
4
70
1
43
0.0
10
138
20
95
10
80
20
95
10
80
20
153
10
138
20
153
0
LWPOLYLINE
5
106
100
AcDbEntity
8
0
100
AcDbPolyline
90
4
70
1
43
0.0
10
215
20
95
10
157
20
95
10
157
20
153
10
215
20
153
0
LWPOLYLINE
5
107
100
AcDbEntity
8
0
100
AcDbPolyline
90
4
70
1
43
0.0
10
292
20
95
10
234
20
95
10
234
20
153
10
292
20
153
0
LWPOLYLINE
5
108
100
AcDbEntity
8
0
100
AcDbPolyline
90
4
70
1
43
0.0
10
369
20
95
10
311
20
95
10
311
20
153
10
369
20
153
0
CIRCLE
5
109
100
AcDbEntity
8
0
100
AcDbCircle
10
45
20
177.99999999999997
30
0
40
1.7499999999999982
0
CIRCLE
5
110
100
AcDbEntity
8
0
100
AcDbCircle
10
32.009618943233434
20
200.49999999999997
30
0
40
1.7499999999999982
0
CIRCLE
5
111
100
AcDbEntity
8
0
100
AcDbCircle
10
57.99038105676658
20
200.49999999999997
30
0
40
1.7499999999999982
0
CIRCLE
5
112
100
AcDbEntity
8
0
100
AcDbCircle
10
391.00961894323348
20
200.49999999999997
30
0
40
1.7499999999999716
0
CIRCLE
5
113
100
AcDbEntity
8
0
100
AcDbCircle
10
416.99038105676664
20
200.49999999999997
30
0
40
1.7499999999999716
0
CIRCLE
5
114
100
AcDbEntity
8
0
100
AcDbCircle
10
404.00000000000006
20
177.99999999999997
30
0
40
1.7499999999999716
0
LINE
5
115
100
AcDbEntity
8
0
100
AcDbLine
10
0
20
24.000000000000004
30
0
11
6.0000000000000142
21
24.000000000000004
31
0
0
LINE
5
116
100
AcDbEntity
8
0
100
AcDbLine
10
0
20
48.000000000000007
30
0
11
6.0000000000000142
21
48.000000000000007
31
0
0
LINE
5
117
100
AcDbEntity
8
0
100
AcDbLine
10
0
20
96.000001430511475
30
0
11
6.0000000000000142
21
96.000001430511475
31
0
0
LINE
5
118
100
AcDbEntity
8
0
100
AcDbLine
10
0
20
120.00000178813934
30
0
11
6.0000000000000142
21
120.00000178813934
31
0
0
LINE
5
119
100
AcDbEntity
8
0
100
AcDbLine
10
0
20
144.00000214576721
30
0
11
6.0000000000000142
21
144.00000214576721
31
0
0
LINE
5
120
100
AcDbEntity
8
0
100
AcDbLine
10
0
20
168.00000250339508
30
0
11
6.0000000000000142
21
168.00000250339508
31
0
0
LINE
5
121
100
AcDbEntity
8
0
100
AcDbLine
10
0
20
192.00000286102295
30
0
11
6.0000000000000142
21
192.00000286102295
31
0
0
LINE
5
122
100
AcDbEntity
8
0
100
AcDbLine
10
0
20
216.00000321865082
30
0
11
6.0000000000000142
21
216.00000321865082
31
0
0
LINE
5
123
100
AcDbEntity
8
0
100
AcDbLine
10
0
20
240.00000357627869
30
0
11
6.0000000000000142
21
240.00000357627869
31
0
0
LINE
5
124
100
AcDbEntity
8
0
100
AcDbLine
10
448.99999991059309
20
24.000000357627869
30
0
11
443.00000000000006
21
24.000000357627869
31
0
0
LINE
5
125
100
AcDbEntity
8
0
100
AcDbLine
10
448.99999991059309
20
48.000000715255737
30
0
11
443.00000000000006
21
48.000000715255737
31
0
0
LINE
5
126
100
AcDbEntity
8
0
100
AcDbLine
10
448.99999991059309
20
72.000001072883606
30
0
11
443.00000000000006
21
72.000001072883606
31
0
0
LINE
5
127
100
AcDbEntity
8
0
100
AcDbLine
10
448.99999991059309
20
96.000001430511475
30
0
11
443.00000000000006
21
96.000001430511475
31
0
0
LINE
5
128
100
AcDbEntity
8
0
100
AcDbLine
10
448.99999991059309
20
96.000001430511475
30
0
11
448.99999991059309
21
120.00000143051147
31
0
0
LINE
5
129
100
AcDbEntity
8
0
100
AcDbLine
10
448.99999991059309
20
120.00000143051147
30
0
11
443.00000000000006
21
120.00000143051147
31
0
0
LINE
5
130
100
AcDbEntity
8
0
100
AcDbLine
10
448.99999991059309
20
144.00000143051147
30
0
11
443.00000000000006
21
144.00000143051147
31
0
0
LINE
5
131
100
AcDbEntity
8
0
100
AcDbLine
10
448.99999991059309
20
144.00000143051147
30
0
11
448.99999991059309
21
168.0000014305115
31
0
0
LINE
5
132
100
AcDbEntity
8
0
100
AcDbLine
10
448.99999991059309
20
168.0000014305115
30
0
11
443.00000000000006
21
168.0000014305115
31
0
0
LINE
5
133
100
AcDbEntity
8
0
100
AcDbLine
10
448.99999991059309
20
192.00000143051147
30
0
11
443.00000000000006
21
192.00000143051147
31
0
0
LINE
5
134
100
AcDbEntity
8
0
100
AcDbLine
10
448.99999991059309
20
192.00000143051147
30
0
11
448.99999991059309
21
216.00000143051147
31
0
0
LINE
5
135
100
AcDbEntity
8
0
100
AcDbLine
10
448.99999991059309
20
216.00000143051147
30
0
11
443.00000000000006
21
216.00000143051147
31
0
0
LINE
5
136
100
AcDbEntity
8
0
100
AcDbLine
10
448.99999991059309
20
240.00000143051147
30
0
11
443.00000000000006
21
240.00000143051147
31
0
0
LINE
5
137
100
AcDbEntity
8
0
100
AcDbLine
10
448.99999991059309
20
240.00000143051147
30
0
11
448.99999991059309
21
264.00000143051147
31
0
0
LINE
5
138
100
AcDbEntity
8
0
100
AcDbLine
10
30.000000000000014
20
0
30
0
11
30.000000000000014
21
6.0000000000000009
31
0
0
LINE
5
139
100
AcDbEntity
8
0
100
AcDbLine
10
60.000000000000014
20
0
30
0
11
60.000000000000014
21
6.0000000000000009
31
0
0
LINE
5
140
100
AcDbEntity
8
0
100
AcDbLine
10
60.000000000000014
20
0
30
0
11
90.000000000000014
21
0
31
0
0
LINE
5
141
100
AcDbEntity
8
0
100
AcDbLine
10
90.000000000000014
20
0
30
0
11
90.000000000000014
21
6.0000000000000009
31
0
0
LINE
5
142
100
AcDbEntity
8
0
100
AcDbLine
10
120.00000000000001
20
0
30
0
11
120.00000000000001
21
6.0000000000000009
31
0
0
LINE
5
143
100
AcDbEntity
8
0
100
AcDbLine
10
120.00000000000001
20
0
30
0
11
150.00000000000003
21
0
31
0
0
LINE
5
144
100
AcDbEntity
8
0
100
AcDbLine
10
150.00000000000003
20
0
30
0
11
150.00000000000003
21
6.0000000000000009
31
0
0
LINE
5
145
100
AcDbEntity
8
0
100
AcDbLine
10
419.00000000000006
20
0
30
0
11
419.00000000000006
21
6.0000000000000009
31
0
0
LINE
5
146
100
AcDbEntity
8
0
100
AcDbLine
10
389.00000000000006
20
0
30
0
11
389.00000000000006
21
6.0000000000000009
31
0
0
LINE
5
147
100
AcDbEntity
8
0
100
AcDbLine
10
389.00000000000006
20
0
30
0
11
359.00000000000006
21
0
31
0
0
LINE
5
148
100
AcDbEntity
8
0
100
AcDbLine
10
359.00000000000006
20
0
30
0
11
359.00000000000006
21
6.0000000000000009
31
0
0
LINE
5
149
100
AcDbEntity
8
0
100
AcDbLine
10
329.00000000000006
20
0
30
0
11
329.00000000000006
21
6.0000000000000009
31
0
0
LINE
5
150
100
AcDbEntity
8
0
100
AcDbLine
10
329.00000000000006
20
0
30
0
11
299.00000000000006
21
0
31
0
0
LINE
5
151
100
AcDbEntity
8
0
100
AcDbLine
10
299.00000000000006
20
0
30
0
11
299.00000000000006
21
6.0000000000000009
31
0
0
LINE
5
152
100
AcDbEntity
8
0
100
AcDbLine
10
180
20
0
30
0
11
180
21
6.0000000000000009
31
0
0
LINE
5
153
100
AcDbEntity
8
0
100
AcDbLine
10
180
20
0
30
0
11
210
21
0
31
0
0
LINE
5
154
100
AcDbEntity
8
0
100
AcDbLine
10
210
20
0
30
0
11
210
21
6.0000000000000009
31
0
0
LINE
5
155
100
AcDbEntity
8
0
100
AcDbLine
10
269.00000000000006
20
0
30
0
11
269.00000000000006
21
6.0000000000000009
31
0
0
LINE
5
156
100
AcDbEntity
8
0
100
AcDbLine
10
269.00000000000006
20
0
30
0
11
239.00000000000006
21
0
31
0
0
LINE
5
157
100
AcDbEntity
8
0
100
AcDbLine
10
239.00000000000006
20
0
30
0
11
239.00000000000006
21
6.0000000000000009
31
0
0
LINE
5
158
100
AcDbEntity
8
0
100
AcDbLine
10
30.000000000000018
20
264.00000393390656
30
0
11
30.000000000000018
21
258.00000000000006
31
0
0
LINE
5
159
100
AcDbEntity
8
0
100
AcDbLine
10
60.000000000000014
20
264.00000393390656
30
0
11
60.000000000000014
21
258.00000000000006
31
0
0
LINE
5
160
100
AcDbEntity
8
0
100
AcDbLine
10
60.000000000000014
20
264.00000393390656
30
0
11
90.000000000000014
21
264.00000393390656
31
0
0
LINE
5
161
100
AcDbEntity
8
0
100
AcDbLine
10
90.000000000000014
20
264.00000393390656
30
0
11
90.000000000000014
21
258.00000000000006
31
0
0
LINE
5
162
100
AcDbEntity
8
0
100
AcDbLine
10
120.00000000000001
20
264.00000393390656
30
0
11
120.00000000000001
21
258.00000000000006
31
0
0
LINE
5
163
100
AcDbEntity
8
0
100
AcDbLine
10
120.00000000000001
20
264.00000393390656
30
0
11
150.00000000000003
21
264.00000393390656
31
0
0
LINE
5
164
100
AcDbEntity
8
0
100
AcDbLine
10
150.00000000000003
20
264.00000393390656
30
0
11
150.00000000000003
21
258.00000000000006
31
0
0
LINE
5
165
100
AcDbEntity
8
0
100
AcDbLine
10
180
20
264.00000393390656
30
0
11
180
21
258.00000000000006
31
0
0
LINE
5
166
100
AcDbEntity
8
0
100
AcDbLine
10
180
20
264.00000393390656
30
0
11
210
21
264.00000393390656
31
0
0
LINE
5
167
100
AcDbEntity
8
0
100
AcDbLine
10
210
20
264.00000393390656
30
0
11
210
21
258.00000000000006
31
0
0
LINE
5
168
100
AcDbEntity
8
0
100
AcDbLine
10
419.00000000000006
20
264.00000393390656
30
0
11
419.00000000000006
21
258.00000000000006
31
0
0
LINE
5
169
100
AcDbEntity
8
0
100
AcDbLine
10
389.00000000000006
20
264.00000393390656
30
0
11
389.00000000000006
21
258.00000000000006
31
0
0
LINE
5
170
100
AcDbEntity
8
0
100
AcDbLine
10
389.00000000000006
20
264.00000393390656
30
0
11
359.00000000000006
21
264.00000393390656
31
0
0
LINE
5
171
100
AcDbEntity
8
0
100
AcDbLine
10
359.00000000000006
20
264.00000393390656
30
0
11
359.00000000000006
21
258.00000000000006
31
0
0
LINE
5
172
100
AcDbEntity
8
0
100
AcDbLine
10
329.00000000000006
20
264.00000393390656
30
0
11
329.00000000000006
21
258.00000000000006
31
0
0
LINE
5
173
100
AcDbEntity
8
0
100
AcDbLine
10
329.00000000000006
20
264.00000393390656
30
0
11
299.00000000000006
21
264.00000393390656
31
0
0
LINE
5
174
100
AcDbEntity
8
0
100
AcDbLine
10
299.00000000000006
20
264.00000393390656
30
0
11
299.00000000000006
21
258.00000000000006
31
0
0
LINE
5
175
100
AcDbEntity
8
0
100
AcDbLine
10
269.00000000000006
20
264.00000393390656
30
0
11
269.00000000000006
21
258.00000384449959
31
0
0
LINE
5
176
100
AcDbEntity
8
0
100
AcDbLine
10
269.00000000000006
20
264.00000393390656
30
0
11
239.00000000000006
21
264.00000393390656
31
0
0
LINE
5
177
100
AcDbEntity
8
0
100
AcDbLine
10
239.00000000000006
20
264.00000393390656
30
0
11
239.00000000000006
21
258.00000000000006
31
0
0
LINE
5
178
100
AcDbEntity
8
0
100
AcDbLine
10
90.000000000000014
20
258.00000000000006
30
0
11
120.00000000000001
21
258.00000000000006
31
0
0
LINE
5
179
100
AcDbEntity
8
0
100
AcDbLine
10
150.00000000000003
20
258.00000000000006
30
0
11
180
21
258.00000000000006
31
0
0
LINE
5
180
100
AcDbEntity
8
0
100
AcDbLine
10
210
20
258.00000000000006
30
0
11
239.00000000000006
21
258.00000000000006
31
0
0
LINE
5
181
100
AcDbEntity
8
0
100
AcDbLine
10
269.00000000000006
20
258.00000384449959
30
0
11
299.00000000000006
21
258.00000000000006
31
0
0
LINE
5
182
100
AcDbEntity
8
0
100
AcDbLine
10
329.00000000000006
20
258.00000000000006
30
0
11
359.00000000000006
21
258.00000000000006
31
0
0
LINE
5
183
100
AcDbEntity
8
0
100
AcDbLine
10
389.00000000000006
20
258.00000000000006
30
0
11
419.00000000000006
21
258.00000000000006
31
0
0
LINE
5
184
100
AcDbEntity
8
0
100
AcDbLine
10
6.0000000000000142
20
240.00000357627869
30
0
11
6.0000000000000142
21
216.00000321865082
31
0
0
LINE
5
185
100
AcDbEntity
8
0
100
AcDbLine
10
6.0000000000000142
20
192.00000286102295
30
0
11
6.0000000000000142
21
168.00000250339508
31
0
0
LINE
5
186
100
AcDbEntity
8
0
100
AcDbLine
10
6.0000000000000142
20
144.00000214576721
30
0
11
6.0000000000000142
21
120.00000178813934
31
0
0
LINE
5
187
100
AcDbEntity
8
0
100
AcDbLine
10
6.0000000000000142
20
96.000001430511475
30
0
11
6.0000000000000142
21
72.000001072883606
31
0
0
LINE
5
188
100
AcDbEntity
8
0
100
AcDbLine
10
6.0000000000000142
20
48.000000000000007
30
0
11
6.0000000000000142
21
24.000000000000004
31
0
0
LINE
5
189
100
AcDbEntity
8
0
100
AcDbLine
10
443.00000000000006
20
240.00000143051147
30
0
11
443.00000000000006
21
216.00000143051147
31
0
0
LINE
5
190
100
AcDbEntity
8
0
100
AcDbLine
10
443.00000000000006
20
192.00000143051147
30
0
11
443.00000000000006
21
168.0000014305115
31
0
0
LINE
5
191
100
AcDbEntity
8
0
100
AcDbLine
10
443.00000000000006
20
144.00000143051147
30
0
11
443.00000000000006
21
120.00000143051147
31
0
0
LINE
5
192
100
AcDbEntity
8
0
100
AcDbLine
10
443.00000000000006
20
96.000001430511475
30
0
11
443.00000000000006
21
72.000001072883606
31
0
0
LINE
5
193
100
AcDbEntity
8
0
100
AcDbLine
10
443.00000000000006
20
48.000000715255737
30
0
11
443.00000000000006
21
24.000000357627869
31
0
0
LINE
5
194
100
AcDbEntity
8
0
100
AcDbLine
10
419.00000000000006
20
6.0000000000000009
30
0
11
389.00000000000006
21
6.0000000000000009
31
0
0
LINE
5
195
100
AcDbEntity
8
0
100
AcDbLine
10
359.00000000000006
20
6.0000000000000009
30
0
11
329.00000000000006
21
6.0000000000000009
31
0
0
LINE
5
196
100
AcDbEntity
8
0
100
AcDbLine
10
299.00000000000006
20
6.0000000000000009
30
0
11
269.00000000000006
21
6.0000000000000009
31
0
0
LINE
5
197
100
AcDbEntity
8
0
100
AcDbLine
10
239.00000000000006
20
6.0000000000000009
30
0
11
210
21
6.0000000000000009
31
0
0
LINE
5
198
100
AcDbEntity
8
0
100
AcDbLine
10
180
20
6.0000000000000009
30
0
11
150.00000000000003
21
6.0000000000000009
31
0
0
LINE
5
199
100
AcDbEntity
8
0
100
AcDbLine
10
120.00000000000001
20
6.0000000000000009
30
0
11
90.000000000000014
21
6.0000000000000009
31
0
0
LINE
5
200
100
AcDbEntity
8
0
100
AcDbLine
10
60.000000000000014
20
6.0000000000000009
30
0
11
30.000000000000014
21
6.0000000000000009
31
0
0
LINE
5
201
100
AcDbEntity
8
0
100
AcDbLine
10
30.000000000000018
20
258.00000000000006
30
0
11
60.000000000000014
21
258.00000000000006
31
0
0
LINE
5
202
100
AcDbEntity
8
0
100
AcDbLine
10
6.0000000000000142
20
72.000001072883606
30
0
11
0
21
72.000001072883606
31
0
0
LINE
5
203
100
AcDbEntity
8
0
100
AcDbLine
10
0
20
72.000001072883606
30
0
11
0
21
48.000000000000007
31
0
0
LINE
5
204
100
AcDbEntity
8
0
100
AcDbLine
10
124.50000184774399
20
32.000000476837158
30
0
11
124.50000184774399
21
61.000000000000007
31
0
0
LINE
5
205
100
AcDbEntity
8
0
100
AcDbLine
10
124.50000184774399
20
32.000000476837158
30
0
11
169.5000025331974
21
32.000000476837158
31
0
0
LINE
5
206
100
AcDbEntity
8
0
100
AcDbLine
10
169.5000025331974
20
32.000000476837158
30
0
11
169.5000025331974
21
61.000000000000007
31
0
0
LINE
5
207
100
AcDbEntity
8
0
100
AcDbLine
10
169.5000025331974
20
61.000000000000007
30
0
11
169.00000000000003
21
61.000000000000007
31
0
0
LINE
5
208
100
AcDbEntity
8
0
100
AcDbLine
10
0
20
24.000000000000004
30
0
11
0
21
0
31
0
0
LINE
5
209
100
AcDbEntity
8
0
100
AcDbLine
10
0
20
0
30
0
11
30.000000000000014
21
0
31
0
0
LINE
5
210
100
AcDbEntity
8
0
100
AcDbLine
10
0
20
120.00000178813934
30
0
11
0
21
96.000001430511475
31
0
0
LINE
5
211
100
AcDbEntity
8
0
100
AcDbLine
10
0
20
144.00000214576721
30
0
11
0
21
168.00000250339508
31
0
0
LINE
5
212
100
AcDbEntity
8
0
100
AcDbLine
10
30.000000000000018
20
264.00000393390656
30
0
11
0
21
264.00000393390656
31
0
0
LINE
5
213
100
AcDbEntity
8
0
100
AcDbLine
10
0
20
264.00000393390656
30
0
11
0
21
240.00000357627869
31
0
0
LINE
5
214
100
AcDbEntity
8
0
100
AcDbLine
10
0
20
216.00000321865082
30
0
11
0
21
192.00000286102295
31
0
0
LINE
5
215
100
AcDbEntity
8
0
100
AcDbLine
10
448.99999991059309
20
24.000000357627869
30
0
11
448.99999991059309
21
0
31
0
0
LINE
5
216
100
AcDbEntity
8
0
100
AcDbLine
10
448.99999991059309
20
0
30
0
11
419.00000000000006
21
0
31
0
0
LINE
5
217
100
AcDbEntity
8
0
100
AcDbLine
10
448.99999991059309
20
72.000001072883606
30
0
11
448.99999991059309
21
48.000000715255737
31
0
0
LINE
5
218
100
AcDbEntity
8
0
100
AcDbLine
10
448.99999991059309
20
264.00000143051147
30
0
11
419.00000000000006
21
264.00000393390656
31
0
0
ENDSEC
0
SECTION
2
OBJECTS
0
DICTIONARY
5
C
100
AcDbDictionary
3
ACAD_GROUP
350
D
3
ACAD_MLINESTYLE
350
17
0
DICTIONARY
5
D
100
AcDbDictionary
0
DICTIONARY
5
1A
330
C
100
AcDbDictionary
0
DICTIONARY
5
17
100
AcDbDictionary
0
ENDSEC
0
EOF
